<svg width="120" height="40" viewBox="0 0 120 40" fill="none" xmlns="http://www.w3.org/2000/svg">
<rect width="120" height="40" rx="6" fill="#232528"/>
<path d="M28.0436 19.3955C28.0168 16.4509 30.4859 15.0183 30.5988 14.9516C29.2004 12.9388 27.033 12.6638 26.2714 12.6419C24.4511 12.4528 22.6853 13.7173 21.758 13.7173C20.8122 13.7173 19.3843 12.6602 17.8453 12.6912C15.8648 12.7214 14.0121 13.8534 12.9959 15.6112C10.8989 19.1954 12.4629 24.4625 14.472 27.3597C15.4771 28.7786 16.6514 30.3628 18.1886 30.3071C19.6924 30.2459 20.2542 29.3606 22.069 29.3606C23.8671 29.3606 24.3946 30.3071 25.9623 30.2715C27.5763 30.2459 28.5924 28.8462 29.5623 27.4145C30.7237 25.7882 31.1901 24.1866 31.2086 24.1044C31.1707 24.0916 28.0742 22.9249 28.0436 19.3955Z" fill="white"/>
<path d="M25.0806 10.7359C25.8893 9.73732 26.4426 8.37874 26.289 7.00006C25.1185 7.05122 23.6547 7.79949 22.8118 8.77617C22.066 9.63682 21.3998 11.0475 21.5719 12.3741C22.8867 12.4709 24.2367 11.719 25.0806 10.7359Z" fill="white"/>
<path d="M49.0716 29.6797H47.1182L46.0482 26.3603H42.329L41.3097 29.6797H39.408L43.0928 18.379H45.3687L49.0716 29.6797ZM45.7257 24.9676L44.758 22.0168C44.6557 21.7153 44.4638 21.0054 44.1809 19.8879H44.1465C44.0338 20.3686 43.8523 21.0785 43.6028 22.0168L42.6524 24.9676H45.7257Z" fill="white"/>
<path d="M58.5493 25.5054C58.5493 26.8913 58.17 27.9867 57.4114 28.7909C56.7319 29.5067 55.8881 29.8642 54.8809 29.8642C53.7937 29.8642 53.0126 29.4787 52.537 28.7076H52.5026V33.0002H50.6688V24.2138C50.6688 23.3426 50.6456 22.4484 50.6008 21.5313H52.2136L52.3159 22.8229H52.3503C52.9619 21.8498 53.89 21.364 55.1355 21.364C56.1091 21.364 56.922 21.7436 57.5722 22.5036C58.2242 23.2645 58.5493 24.2648 58.5493 25.5054ZM56.6811 25.5717C56.6811 24.7785 56.5005 24.1247 56.1375 23.6101C55.741 23.0734 55.2086 22.8051 54.5411 22.8051C54.0887 22.8051 53.6775 22.9545 53.3103 23.2492C52.9421 23.5464 52.7013 23.9345 52.5886 24.4151C52.5318 24.6393 52.5034 24.8227 52.5034 24.9671V26.3257C52.5034 26.9184 52.6875 27.4186 53.0556 27.827C53.4238 28.2355 53.902 28.4393 54.4904 28.4393C55.181 28.4393 55.7186 28.1761 56.1031 27.6513C56.4885 27.1256 56.6811 26.4327 56.6811 25.5717Z" fill="white"/>
<path d="M68.0417 25.5054C68.0417 26.8913 67.6623 27.9867 66.9028 28.7909C66.2242 29.5067 65.3804 29.8642 64.3732 29.8642C63.286 29.8642 62.505 29.4787 62.0302 28.7076H61.9958V33.0002H60.1619V24.2138C60.1619 23.3426 60.1387 22.4484 60.094 21.5313H61.7067L61.8091 22.8229H61.8435C62.4542 21.8498 63.3823 21.364 64.6286 21.364C65.6015 21.364 66.4143 21.7436 67.0663 22.5036C67.7157 23.2645 68.0417 24.2648 68.0417 25.5054ZM66.1734 25.5717C66.1734 24.7785 65.9919 24.1247 65.629 23.6101C65.2324 23.0734 64.7017 22.8051 64.0334 22.8051C63.5801 22.8051 63.1698 22.9545 62.8017 23.2492C62.4336 23.5464 62.1936 23.9345 62.0809 24.4151C62.025 24.6393 61.9958 24.8227 61.9958 24.9671V26.3257C61.9958 26.9184 62.1798 27.4186 62.5462 27.827C62.9144 28.2346 63.3926 28.4393 63.9827 28.4393C64.6734 28.4393 65.2109 28.1761 65.5954 27.6513C65.9808 27.1256 66.1734 26.4327 66.1734 25.5717Z" fill="white"/>
<path d="M78.6562 26.5104C78.6562 27.4717 78.3182 28.2537 77.6395 28.8575C76.8938 29.5173 75.8556 29.8468 74.5215 29.8468C73.2898 29.8468 72.3024 29.6124 71.5549 29.1428L71.9798 27.6338C72.7849 28.1145 73.6683 28.3556 74.6308 28.3556C75.3215 28.3556 75.859 28.2011 76.2452 27.8937C76.6297 27.5863 76.8215 27.1736 76.8215 26.659C76.8215 26.2005 76.6633 25.8141 76.3459 25.5007C76.0302 25.1874 75.503 24.8961 74.7667 24.6269C72.7626 23.889 71.7614 22.808 71.7614 21.3865C71.7614 20.4575 72.1123 19.6958 72.815 19.1031C73.5152 18.5096 74.4493 18.2132 75.6173 18.2132C76.659 18.2132 77.5243 18.3924 78.215 18.7499L77.7565 20.2257C77.1114 19.8793 76.382 19.706 75.5657 19.706C74.9206 19.706 74.4166 19.8631 74.0553 20.1756C73.75 20.455 73.5969 20.7955 73.5969 21.1989C73.5969 21.6455 73.7715 22.0149 74.1224 22.3053C74.4278 22.5737 74.9826 22.8641 75.7877 23.1774C76.7725 23.5689 77.4959 24.0266 77.9612 24.5514C78.4248 25.0745 78.6562 25.7292 78.6562 26.5104Z" fill="white"/>
<path d="M84.7184 22.8893H82.6974V26.8456C82.6974 27.8519 83.0535 28.3546 83.7672 28.3546C84.0949 28.3546 84.3667 28.3265 84.5817 28.2705L84.6324 29.6453C84.2712 29.7786 83.7956 29.8457 83.2065 29.8457C82.4824 29.8457 81.9166 29.6275 81.5081 29.1918C81.1013 28.7554 80.8966 28.0234 80.8966 26.995V22.8876H79.6926V21.529H80.8966V20.037L82.6974 19.5003V21.529H84.7184V22.8893Z" fill="white"/>
<path d="M93.8381 25.5382C93.8381 26.7907 93.4751 27.819 92.7509 28.6232C91.9914 29.4511 90.9833 29.8638 89.7266 29.8638C88.5156 29.8638 87.5513 29.4673 86.8323 28.6742C86.1132 27.881 85.7537 26.8799 85.7537 25.6732C85.7537 24.4105 86.1235 23.3762 86.8658 22.5721C87.6064 21.767 88.6059 21.3645 89.8625 21.3645C91.0736 21.3645 92.0481 21.7611 92.7835 22.5551C93.4871 23.3253 93.8381 24.3196 93.8381 25.5382ZM91.9355 25.5968C91.9355 24.8453 91.7729 24.2007 91.4435 23.6632C91.059 23.0128 90.5093 22.6884 89.7972 22.6884C89.06 22.6884 88.5001 23.0136 88.1156 23.6632C87.7862 24.2016 87.6236 24.8563 87.6236 25.6307C87.6236 26.3823 87.7862 27.0268 88.1156 27.5634C88.5121 28.2139 89.066 28.5383 89.7808 28.5383C90.481 28.5383 91.0306 28.2071 91.4271 27.5465C91.7652 26.9987 91.9355 26.3474 91.9355 25.5968Z" fill="white"/>
<path d="M99.7982 23.1235C99.6168 23.0904 99.4233 23.0734 99.2203 23.0734C98.5753 23.0734 98.0765 23.3137 97.7257 23.7952C97.4204 24.2198 97.2673 24.7565 97.2673 25.4044V29.6799H95.4347L95.4519 24.0975C95.4519 23.1583 95.4286 22.3032 95.3831 21.5322H96.98L97.0471 23.0913H97.0979C97.2914 22.5554 97.5967 22.124 98.0146 21.8005C98.4231 21.5093 98.8643 21.364 99.3399 21.364C99.5093 21.364 99.6624 21.3759 99.7982 21.3972V23.1235Z" fill="white"/>
<path d="M108 25.2198C108 25.5442 107.978 25.8176 107.932 26.0409H102.431C102.453 26.846 102.718 27.4616 103.229 27.8862C103.693 28.2658 104.292 28.456 105.029 28.456C105.843 28.456 106.586 28.3277 107.255 28.0704L107.542 29.3272C106.761 29.6635 105.839 29.8308 104.775 29.8308C103.495 29.8308 102.49 29.4588 101.759 28.7158C101.03 27.9728 100.664 26.975 100.664 25.7234C100.664 24.4946 101.004 23.4714 101.684 22.6553C102.397 21.7841 103.359 21.3484 104.57 21.3484C105.76 21.3484 106.66 21.7841 107.272 22.6553C107.756 23.3474 108 24.2033 108 25.2198ZM106.251 24.7502C106.263 24.2135 106.143 23.7499 105.895 23.3584C105.577 22.8549 105.09 22.6035 104.433 22.6035C103.834 22.6035 103.346 22.8489 102.974 23.3414C102.668 23.7329 102.487 24.2025 102.431 24.7494H106.251V24.7502Z" fill="white"/>
<path d="M45.1207 11.4256C45.1207 12.4251 44.8171 13.1774 44.2108 13.6827C43.6493 14.1489 42.8512 14.3824 41.8175 14.3824C41.3049 14.3824 40.8663 14.3603 40.4991 14.3162V8.85517C40.9781 8.77874 41.4941 8.73969 42.0514 8.73969C43.0361 8.73969 43.7782 8.95113 44.2788 9.37401C44.8395 9.85209 45.1207 10.5357 45.1207 11.4256ZM44.1704 11.4502C44.1704 10.8023 43.9967 10.3055 43.6493 9.95909C43.3018 9.61348 42.7944 9.44025 42.1262 9.44025C41.8424 9.44025 41.6008 9.45893 41.4004 9.49799V13.6496C41.5113 13.6665 41.7143 13.6742 42.0093 13.6742C42.699 13.6742 43.2313 13.4848 43.6062 13.1061C43.9812 12.7274 44.1704 12.1754 44.1704 11.4502Z" fill="white"/>
<path d="M50.1596 12.2979C50.1596 12.9135 49.9816 13.4179 49.6256 13.8136C49.2523 14.2204 48.7578 14.4233 48.1404 14.4233C47.5453 14.4233 47.0714 14.2289 46.7179 13.8383C46.3653 13.4485 46.1891 12.9568 46.1891 12.3641C46.1891 11.7442 46.3705 11.2356 46.7351 10.8407C47.0998 10.4458 47.59 10.248 48.2074 10.248C48.8026 10.248 49.2807 10.4424 49.6428 10.8322C49.9868 11.2109 50.1596 11.7001 50.1596 12.2979ZM49.2248 12.3267C49.2248 11.9574 49.144 11.6406 48.9832 11.3765C48.794 11.0572 48.5248 10.8976 48.1748 10.8976C47.8127 10.8976 47.5375 11.0572 47.3483 11.3765C47.1866 11.6406 47.1067 11.9624 47.1067 12.3429C47.1067 12.7123 47.1875 13.029 47.3483 13.2931C47.5435 13.6124 47.8153 13.772 48.1662 13.772C48.5102 13.772 48.7802 13.6098 48.9746 13.2846C49.1414 13.0154 49.2248 12.6961 49.2248 12.3267Z" fill="white"/>
<path d="M56.9193 10.33L55.6505 14.333H54.8248L54.2993 12.5947C54.1659 12.1608 54.0576 11.7294 53.9733 11.3014H53.9569C53.8787 11.7413 53.7703 12.1718 53.631 12.5947L53.0727 14.333H52.2375L51.0445 10.33H51.9709L52.4293 12.233C52.5403 12.683 52.6315 13.1119 52.7046 13.5178H52.7209C52.788 13.1832 52.899 12.7569 53.0555 12.2415L53.631 10.3308H54.3655L54.9169 12.2007C55.0502 12.6567 55.1586 13.0957 55.242 13.5186H55.2669C55.328 13.1068 55.42 12.6677 55.5422 12.2007L56.0342 10.3308L56.9193 10.33Z" fill="white"/>
<path d="M61.5907 14.3326H60.6894V12.0398C60.6894 11.3333 60.4176 10.9801 59.8724 10.9801C59.605 10.9801 59.3891 11.0769 59.2214 11.2713C59.0554 11.4658 58.9711 11.6951 58.9711 11.9575V14.3317H58.0699V11.4734C58.0699 11.1219 58.0587 10.7406 58.0372 10.3279H58.8293L58.8714 10.9538H58.8963C59.0013 10.7593 59.1578 10.5988 59.3633 10.4706C59.6075 10.3211 59.881 10.2455 60.1803 10.2455C60.5587 10.2455 60.8734 10.3661 61.1237 10.6081C61.435 10.9045 61.5907 11.3469 61.5907 11.9345V14.3326Z" fill="white"/>
<path d="M64.0768 14.3328H63.1764V8.4931H64.0768V14.3328Z" fill="white"/>
<path d="M69.3832 12.2979C69.3832 12.9135 69.2052 13.4179 68.8492 13.8136C68.476 14.2204 67.9806 14.4233 67.364 14.4233C66.768 14.4233 66.2942 14.2289 65.9416 13.8383C65.589 13.4485 65.4127 12.9568 65.4127 12.3641C65.4127 11.7442 65.5941 11.2356 65.9588 10.8407C66.3234 10.4458 66.8136 10.248 67.4302 10.248C68.0262 10.248 68.5035 10.4424 68.8664 10.8322C69.2104 11.2109 69.3832 11.7001 69.3832 12.2979ZM68.4476 12.3267C68.4476 11.9574 68.3667 11.6406 68.2059 11.3765C68.0176 11.0572 67.7475 10.8976 67.3984 10.8976C67.0355 10.8976 66.7603 11.0572 66.5719 11.3765C66.4103 11.6406 66.3303 11.9624 66.3303 12.3429C66.3303 12.7123 66.4111 13.029 66.5719 13.2931C66.7672 13.6124 67.0389 13.772 67.3898 13.772C67.7338 13.772 68.003 13.6098 68.1973 13.2846C68.365 13.0154 68.4476 12.6961 68.4476 12.3267Z" fill="white"/>
<path d="M73.7482 14.3325H72.9389L72.8718 13.8714H72.8469C72.57 14.2391 72.1752 14.4233 71.6627 14.4233C71.28 14.4233 70.9704 14.3019 70.7373 14.0607C70.5258 13.8417 70.42 13.5691 70.42 13.2455C70.42 12.7564 70.6264 12.3836 71.0418 12.1255C71.4563 11.8673 72.0394 11.7408 72.7901 11.7468V11.672C72.7901 11.1447 72.5098 10.8815 71.9482 10.8815C71.5483 10.8815 71.1957 10.9808 70.8913 11.1778L70.7081 10.5936C71.0848 10.3635 71.55 10.248 72.0987 10.248C73.1582 10.248 73.6897 10.7999 73.6897 11.9039V13.378C73.6897 13.778 73.7095 14.0964 73.7482 14.3325ZM72.8125 12.9568V12.3395C71.8183 12.3225 71.3213 12.5917 71.3213 13.1462C71.3213 13.3551 71.378 13.5113 71.4941 13.6158C71.6102 13.7202 71.7581 13.772 71.9344 13.772C72.1322 13.772 72.3171 13.71 72.4857 13.5869C72.6551 13.4629 72.7592 13.3058 72.7979 13.1131C72.8073 13.0698 72.8125 13.0171 72.8125 12.9568Z" fill="white"/>
<path d="M78.8686 14.3328H78.0688L78.0266 13.69H78.0017C77.7463 14.1791 77.3111 14.4237 76.6997 14.4237C76.2112 14.4237 75.8044 14.2343 75.4819 13.8556C75.1594 13.4769 74.9986 12.9852 74.9986 12.3814C74.9986 11.7335 75.1732 11.2087 75.5241 10.8079C75.8638 10.4343 76.28 10.2475 76.7754 10.2475C77.3197 10.2475 77.7007 10.4284 77.9174 10.7909H77.9346V8.4931H78.8367V13.2544C78.8367 13.6441 78.8471 14.0033 78.8686 14.3328ZM77.9346 12.6447V11.9772C77.9346 11.8617 77.926 11.7683 77.9097 11.697C77.8589 11.483 77.7497 11.303 77.5837 11.1578C77.416 11.0126 77.2139 10.9395 76.9809 10.9395C76.6446 10.9395 76.3815 11.0712 76.188 11.3353C75.9962 11.5994 75.899 11.9365 75.899 12.3483C75.899 12.744 75.9911 13.065 76.1759 13.3121C76.3712 13.5754 76.6343 13.707 76.9637 13.707C77.2595 13.707 77.496 13.5974 77.6758 13.3775C77.8495 13.1746 77.9346 12.93 77.9346 12.6447Z" fill="white"/>
<path d="M86.5776 12.2979C86.5776 12.9135 86.3996 13.4179 86.0435 13.8136C85.6703 14.2204 85.1767 14.4233 84.5583 14.4233C83.9641 14.4233 83.4902 14.2289 83.1359 13.8383C82.7833 13.4485 82.607 12.9568 82.607 12.3641C82.607 11.7442 82.7885 11.2356 83.1531 10.8407C83.5178 10.4458 84.0079 10.248 84.6263 10.248C85.2205 10.248 85.6995 10.4424 86.0607 10.8322C86.4047 11.2109 86.5776 11.7001 86.5776 12.2979ZM85.6436 12.3267C85.6436 11.9574 85.5628 11.6406 85.402 11.3765C85.2119 11.0572 84.9436 10.8976 84.5927 10.8976C84.2315 10.8976 83.9563 11.0572 83.7663 11.3765C83.6046 11.6406 83.5246 11.9624 83.5246 12.3429C83.5246 12.7123 83.6055 13.029 83.7663 13.2931C83.9615 13.6124 84.2333 13.772 84.5841 13.772C84.9281 13.772 85.199 13.6098 85.3934 13.2846C85.5594 13.0154 85.6436 12.6961 85.6436 12.3267Z" fill="white"/>
<path d="M91.4257 14.3326H90.5253V12.0398C90.5253 11.3333 90.2536 10.9801 89.7075 10.9801C89.44 10.9801 89.2242 11.0769 89.0573 11.2713C88.8905 11.4658 88.8071 11.6951 88.8071 11.9575V14.3317H87.905V11.4734C87.905 11.1219 87.8946 10.7406 87.8731 10.3279H88.6643L88.7065 10.9538H88.7314C88.8372 10.7593 88.9937 10.5988 89.1984 10.4706C89.4435 10.3211 89.7161 10.2455 90.0162 10.2455C90.3938 10.2455 90.7085 10.3661 90.9588 10.6081C91.2709 10.9045 91.4257 11.3469 91.4257 11.9345V14.3326Z" fill="white"/>
<path d="M97.4906 10.9965H96.4982V12.9411C96.4982 13.4353 96.6745 13.6824 97.0236 13.6824C97.1853 13.6824 97.3195 13.6688 97.4252 13.6408L97.4484 14.3159C97.2704 14.3821 97.0365 14.4152 96.7484 14.4152C96.3924 14.4152 96.1155 14.3082 95.9151 14.0942C95.7139 13.8802 95.6141 13.5202 95.6141 13.0149V10.9965H95.0216V10.3299H95.6141V9.59619L96.4973 9.33295V10.329H97.4897V10.9965H97.4906Z" fill="white"/>
<path d="M102.263 14.3328H101.36V12.0571C101.36 11.3395 101.089 10.9803 100.544 10.9803C100.126 10.9803 99.8408 11.1884 99.6843 11.6044C99.6577 11.6919 99.6422 11.7989 99.6422 11.9246V14.332H98.7418V8.4931H99.6422V10.9056H99.6594C99.9432 10.4666 100.35 10.2475 100.877 10.2475C101.25 10.2475 101.559 10.3681 101.804 10.6101C102.109 10.9115 102.263 11.3599 102.263 11.9526V14.3328Z" fill="white"/>
<path d="M107.187 12.1414C107.187 12.3011 107.175 12.4352 107.154 12.5448H104.451C104.463 12.9405 104.592 13.2419 104.842 13.4508C105.071 13.6377 105.366 13.7311 105.727 13.7311C106.127 13.7311 106.492 13.6682 106.82 13.5417L106.961 14.1599C106.577 14.3246 106.124 14.407 105.601 14.407C104.973 14.407 104.478 14.2244 104.121 13.8593C103.761 13.4941 103.583 13.0042 103.583 12.3894C103.583 11.7856 103.749 11.2829 104.084 10.8821C104.433 10.4541 104.905 10.2401 105.501 10.2401C106.084 10.2401 106.527 10.4541 106.826 10.8821C107.068 11.2218 107.187 11.6421 107.187 12.1414ZM106.327 11.9113C106.334 11.6472 106.275 11.4196 106.153 11.2277C105.996 10.9806 105.758 10.8566 105.435 10.8566C105.141 10.8566 104.901 10.9772 104.718 11.2192C104.569 11.412 104.48 11.6421 104.451 11.9113H106.327Z" fill="white"/>
</svg>
