<svg width="16" height="16" viewBox="0 0 16 16" fill="none" xmlns="http://www.w3.org/2000/svg">
<path fill-rule="evenodd" clip-rule="evenodd" d="M16 8C16 12.4183 12.4183 16 8 16C3.58172 16 0 12.4183 0 8C0 3.58172 3.58172 0 8 0C12.4183 0 16 3.58172 16 8ZM8 10C7.63181 10 7.33333 9.70152 7.33333 9.33333V5.33333C7.33333 4.96514 7.63181 4.66667 8 4.66667C8.36819 4.66667 8.66667 4.96514 8.66667 5.33333V9.33333C8.66667 9.70152 8.36819 10 8 10ZM8 12C8.36819 12 8.66667 11.7015 8.66667 11.3333C8.66667 10.9651 8.36819 10.6667 8 10.6667C7.63181 10.6667 7.33333 10.9651 7.33333 11.3333C7.33333 11.7015 7.63181 12 8 12Z" fill="#FF5555"/>
</svg>
