<svg width="20" height="20" viewBox="0 0 20 20" fill="none" xmlns="http://www.w3.org/2000/svg">
<circle cx="12" cy="12" r="12" fill="white"/>
<path fill-rule="evenodd" clip-rule="evenodd" d="M10 20C15.5228 20 20 15.5228 20 10C20 4.47715 15.5228 0 10 0C4.47715 0 0 4.47715 0 10C0 15.5228 4.47715 20 10 20ZM6.81084 9.88366C6.47044 9.57391 5.94339 9.59875 5.63363 9.93914C5.32388 10.2795 5.34872 10.8066 5.68911 11.1163L8.13858 13.3453C8.64019 13.8018 9.41429 13.775 9.88312 13.2849L14.7689 8.17775C15.087 7.84518 15.0753 7.31768 14.7427 6.99953C14.4102 6.68138 13.8827 6.69307 13.5645 7.02563L8.95972 11.8391L6.81084 9.88366Z" fill="#0075FF"/>
</svg>
