<svg width="16" height="16" viewBox="0 0 16 16" fill="none" xmlns="http://www.w3.org/2000/svg">
<path fill-rule="evenodd" clip-rule="evenodd" d="M8 16C12.4183 16 16 12.4183 16 8C16 3.58172 12.4183 0 8 0C3.58172 0 0 3.58172 0 8C0 12.4183 3.58172 16 8 16ZM5.44867 7.90693C5.17635 7.65913 4.75471 7.679 4.50691 7.95131C4.2591 8.22363 4.27897 8.64527 4.55129 8.89308L6.51086 10.6763C6.91215 11.0414 7.53143 11.02 7.90649 10.6279L11.8151 6.5422C12.0696 6.27615 12.0603 5.85414 11.7942 5.59962C11.5281 5.3451 11.1061 5.35445 10.8516 5.62051L7.16778 9.47129L5.44867 7.90693Z" fill="#0075FF"/>
</svg>
