<svg width="20" height="20" viewBox="0 0 20 20" fill="none" xmlns="http://www.w3.org/2000/svg">
<circle cx="12" cy="12" r="12" fill="white"/>
<path fill-rule="evenodd" clip-rule="evenodd" d="M10 20C15.5228 20 20 15.5228 20 10C20 4.47715 15.5228 0 10 0C4.47715 0 0 4.47715 0 10C0 15.5228 4.47715 20 10 20ZM6.4941 13.5059C6.16867 13.1805 6.16867 12.6528 6.4941 12.3274L8.82147 10L6.49408 7.67264C6.16864 7.3472 6.16864 6.81957 6.49408 6.49413C6.81952 6.16869 7.34715 6.16869 7.67259 6.49413L9.99999 8.82152L12.3274 6.49408C12.6529 6.16864 13.1805 6.16864 13.5059 6.49408C13.8314 6.81951 13.8314 7.34715 13.5059 7.67259L11.1785 10L13.5059 12.3274C13.8314 12.6529 13.8314 13.1805 13.5059 13.506C13.1805 13.8314 12.6528 13.8314 12.3274 13.506L9.99999 11.1785L7.67262 13.5059C7.34718 13.8313 6.81954 13.8313 6.4941 13.5059Z" fill="#FF5555"/>
</svg>
