<svg width="120" height="40" viewBox="0 0 120 40" fill="none" xmlns="http://www.w3.org/2000/svg">
<rect width="120" height="40" rx="6" fill="#232528"/>
<path d="M40.1818 10.6232C40.1818 11.3755 39.9608 11.9745 39.5183 12.4214C39.0157 12.9528 38.3606 13.2187 37.5553 13.2187C36.7841 13.2187 36.1283 12.9493 35.5891 12.4098C35.0489 11.8707 34.7794 11.2022 34.7794 10.4046C34.7794 9.60662 35.0489 8.9385 35.5891 8.39895C36.1283 7.85989 36.7841 7.59012 37.5553 7.59012C37.9379 7.59012 38.3043 7.66558 38.6522 7.81607C39 7.96691 39.279 8.16715 39.4877 8.41792L39.0181 8.89177C38.6643 8.46562 38.1773 8.25271 37.5553 8.25271C36.9928 8.25271 36.5065 8.45198 36.096 8.85077C35.6855 9.24996 35.4803 9.76763 35.4803 10.4046C35.4803 11.0416 35.6855 11.5592 36.096 11.9585C36.5065 12.3573 36.9928 12.5565 37.5553 12.5565C38.1519 12.5565 38.6494 12.3562 39.0477 11.955C39.3062 11.6936 39.4557 11.3303 39.4957 10.8637H37.5552V10.2166H40.1445C40.1695 10.3573 40.1817 10.4923 40.1817 10.6232" fill="white"/>
<path d="M40.1827 10.6228H40.0936C40.0929 11.358 39.8799 11.929 39.4562 12.3576L39.4553 12.3583L39.4549 12.3591C38.9682 12.8721 38.3426 13.1275 37.5561 13.1286C36.8055 13.1275 36.1772 12.8694 35.6526 12.346C35.1291 11.8217 34.8703 11.1815 34.8693 10.4043C34.8703 9.62667 35.1291 8.98688 35.6526 8.46287C36.1772 7.93918 36.8055 7.68067 37.5561 7.67958C37.9273 7.67958 38.2808 7.75262 38.6178 7.89814C38.9553 8.04479 39.2218 8.23696 39.4204 8.47554L39.4886 8.41759L39.4256 8.35411L38.956 8.82829L39.0189 8.89144L39.0875 8.83398C38.7173 8.38672 38.1977 8.16126 37.5561 8.16259C36.9728 8.16186 36.4597 8.37203 36.0353 8.78595C35.6067 9.20121 35.3914 9.74802 35.3921 10.4043C35.3914 11.0606 35.6067 11.6073 36.0353 12.0226C36.4597 12.4365 36.9728 12.6467 37.5561 12.646C38.1725 12.647 38.6979 12.4362 39.1115 12.0181C39.3877 11.7389 39.5443 11.352 39.5853 10.8711L39.5936 10.7736H37.6452V10.306H40.1454V10.2163L40.0577 10.232C40.082 10.3682 40.0935 10.4976 40.0935 10.6228H40.2717C40.2717 10.4864 40.2591 10.3461 40.233 10.2002L40.2198 10.1265H37.4671V10.9532H39.4966V10.8634L39.4079 10.8557C39.3686 11.3075 39.2259 11.6477 38.9856 11.8912C38.6029 12.2756 38.1333 12.4653 37.5561 12.4664C37.0146 12.4656 36.555 12.2776 36.1588 11.8936C35.7664 11.5109 35.5712 11.0223 35.5702 10.4043C35.5712 9.78623 35.7664 9.29766 36.1588 8.91497C36.555 8.53091 37.0145 8.3429 37.5561 8.34217C38.1583 8.34362 38.6131 8.54423 38.9508 8.94935L39.0135 9.02441L39.5516 8.48111L39.6093 8.42292L39.5568 8.36005C39.338 8.09705 39.0465 7.8883 38.6881 7.73333C38.3292 7.57789 37.9503 7.5 37.5561 7.5C36.7645 7.49932 36.0812 7.7799 35.5271 8.33519C34.9708 8.88938 34.6905 9.58599 34.6912 10.4043C34.6905 11.2222 34.9708 11.9192 35.5274 12.4737C36.0812 13.0286 36.7645 13.3089 37.5561 13.3082C38.3806 13.3089 39.0646 13.0328 39.5836 12.4832L39.5192 12.4211L39.5821 12.4846C40.0434 12.0198 40.2723 11.392 40.2717 10.6228H40.1826H40.1827ZM44.2874 8.37236H41.8541V10.0806H44.0485V10.728H41.8541V12.4362H44.2874V13.098H41.1681V7.71049H44.2874V8.37236Z" fill="white"/>
<path d="M44.2861 8.37168V8.28189H41.7637V10.1697H43.9581V10.6372L41.7637 10.6375V12.5253H44.197V13.0076H41.2558V7.79961H44.197V8.37168H44.2861V8.28189V8.37168H44.3751V7.62003H41.0777V13.1872H44.3751V12.3457H41.9418V10.8171H44.1362V9.99012H41.9418V8.46147H44.3751V8.37168H44.2861ZM47.1814 13.0974H46.4943V8.37164H45.0019V7.70978H48.6737V8.37164H47.1814V13.0973" fill="white"/>
<path d="M47.1821 13.0974V13.0076H46.5841V8.28189H45.0917V7.79965H48.5854V8.28189H47.093V13.0974H47.1821V13.0076V13.0974H47.2711V8.46147H48.7635V7.62003H44.9136V8.46143H46.406V13.1871H47.2711V13.0973H47.1821V13.0974ZM51.3311 13.0974V7.70978H52.0175V13.0973H51.3311" fill="white"/>
<path d="M51.3309 13.0974H51.42V7.79961H51.9282V13.0076H51.3309V13.0974H51.42H51.3309V13.1872H52.1063V7.62003H51.2419V13.1872H51.3309V13.0974V13.0974ZM55.0628 13.0974H54.3758V8.37164H52.8835V7.70978H56.5552V8.37164H55.0628V13.0973" fill="white"/>
<path d="M55.0632 13.0984V13.0086H54.4652V8.28289H52.973V7.80065H56.4665V8.28289H54.9742V13.0984H55.0632V13.0086V13.0984H55.1523V8.46247H56.6446V7.62103H52.7948V8.46243H54.2871V13.1881H55.1523V13.0983H55.0632V13.0984ZM60.0955 11.9511C60.491 12.3548 60.9749 12.5564 61.5472 12.5564C62.1194 12.5564 62.6036 12.3548 62.9985 11.9511C63.3943 11.5474 63.5927 11.0314 63.5927 10.4046C63.5927 9.77788 63.3943 9.26182 62.9985 8.85811C62.6036 8.4544 62.1194 8.25271 61.5472 8.25271C60.9749 8.25271 60.491 8.4544 60.0955 8.85811C59.7007 9.26182 59.5024 9.77784 59.5024 10.4046C59.5024 11.0314 59.7007 11.5474 60.0955 11.9511ZM63.5063 12.4021C62.981 12.9468 62.3278 13.2187 61.5472 13.2187C60.7658 13.2187 60.1128 12.9468 59.5887 12.4021C59.063 11.8581 58.8014 11.1921 58.8014 10.4046C58.8014 9.61711 59.063 8.95101 59.5887 8.40706C60.1129 7.86227 60.7658 7.59012 61.5472 7.59012C62.3236 7.59012 62.9751 7.86373 63.5029 8.41058C64.0299 8.95739 64.2936 9.62203 64.2936 10.4046C64.2936 11.1921 64.0305 11.8581 63.5063 12.4021Z" fill="white"/>
<path d="M60.0955 11.9508L60.0322 12.0139C60.4424 12.4338 60.9541 12.647 61.5472 12.646C62.14 12.647 62.6524 12.4338 63.0618 12.0139C63.4747 11.5937 63.6824 11.05 63.6817 10.4043C63.6823 9.75859 63.4747 9.21489 63.0618 8.79463C62.6524 8.37478 62.14 8.16154 61.5472 8.16259C60.9541 8.16154 60.4424 8.37478 60.0322 8.79463C59.6204 9.21489 59.4123 9.75859 59.4134 10.4043C59.4123 11.05 59.6204 11.5937 60.0322 12.0139L60.0955 11.9508L60.1589 11.8876C59.7811 11.5 59.5922 11.0125 59.5915 10.4043C59.5922 9.79612 59.7811 9.30855 60.1589 8.9209C60.5401 8.53337 60.9954 8.34326 61.5472 8.34221C62.0985 8.34326 62.5549 8.53337 62.9352 8.9209C63.3137 9.30855 63.5026 9.79612 63.5033 10.4043C63.5026 11.0124 63.3137 11.5 62.9352 11.8876C62.5549 12.2752 62.0986 12.4653 61.5472 12.4663C60.9954 12.4653 60.5401 12.2752 60.1589 11.8876L60.0955 11.9508ZM63.5064 12.4018L63.4427 12.3394C62.9321 12.8669 62.3076 13.1275 61.5472 13.1286C60.7864 13.1275 60.162 12.8669 59.6523 12.3394L59.6499 12.3366L59.6523 12.3394C59.1427 11.8101 58.8913 11.1717 58.8906 10.4043C58.8913 9.6368 59.1427 8.99846 59.6523 8.46917C60.162 7.94161 60.7864 7.68067 61.5472 7.67962C62.3027 7.68067 62.9258 7.9427 63.4392 8.473C63.9506 9.00476 64.2035 9.64209 64.2046 10.4043C64.2035 11.1717 63.9513 11.8101 63.4427 12.3394L63.5064 12.4018L63.5704 12.4642C64.1103 11.9052 64.3833 11.2117 64.3827 10.4043C64.3833 9.60145 64.1092 8.9094 63.5669 8.34786C63.0242 7.7841 62.3445 7.49903 61.5472 7.5C60.7457 7.49903 60.0639 7.78277 59.5247 8.34435V8.34395C58.9838 8.90339 58.7117 9.59685 58.7124 10.4043C58.7117 11.2117 58.9838 11.9052 59.5247 12.4646L59.5271 12.4671L59.5247 12.4642C60.0639 13.0258 60.7457 13.3089 61.5472 13.3082C62.3483 13.3089 63.0301 13.0258 63.5704 12.4642L63.5064 12.4018ZM65.2572 13.0981V7.71045H66.0928L68.6896 11.9016H68.7192L68.6896 10.8634V7.71045H69.3767V13.098H68.66L65.9432 8.70375H65.9136L65.9432 9.74237V13.098H65.2572" fill="white"/>
<path d="M65.257 13.0974H65.3461V7.79957H66.0432L68.64 11.9907H68.8104L68.7785 10.8614V7.79962H69.2874V13.0076H68.7093L65.9924 8.61329H65.822L65.8539 9.74315V13.0076H65.257V13.0973H65.3461H65.257V13.1871H66.032V9.74029L66.0025 8.70066L65.9134 8.70308V8.79287H65.943V8.70308L65.8675 8.75082L68.6104 13.1871H69.4655V7.62H68.6004V10.8637L68.6299 11.9034L68.719 11.9009V11.8111H68.6894V11.9009L68.7649 11.8533L66.1419 7.62H65.168V13.1871H65.2571V13.0973L65.257 13.0974ZM93.185 28.3621H94.8467V17.137H93.1849L93.185 28.3621ZM108.152 21.1805L106.247 26.0472H106.19L104.213 21.1805H102.423L105.388 27.9826L103.698 31.7662H105.432L110 21.1805L108.152 21.1805ZM98.7286 27.0872C98.1836 27.0872 97.4248 26.8128 97.4248 26.1338C97.4248 25.2674 98.3706 24.9353 99.1863 24.9353C99.9175 24.9353 100.26 25.0941 100.705 25.311C100.576 26.3506 99.6877 27.0872 98.7286 27.0872ZM98.9289 20.9349C97.7258 20.9349 96.4799 21.4694 95.9643 22.6537L97.439 23.2745C97.7543 22.6537 98.3412 22.4512 98.9575 22.4512C99.8168 22.4512 100.69 22.9714 100.705 23.8957V24.0111C100.404 23.8377 99.7598 23.5779 98.9717 23.5779C97.3821 23.5779 95.7631 24.4586 95.7631 26.105C95.7631 27.607 97.0668 28.5747 98.5273 28.5747C99.645 28.5747 100.26 28.0692 100.648 27.4772H100.705V28.3435H102.309V24.0398C102.309 22.0472 100.834 20.9349 98.9289 20.9349ZM88.6592 22.547H86.2957V18.6993H88.6592C89.9015 18.6993 90.6068 19.7364 90.6068 20.6231C90.6068 21.493 89.9015 22.547 88.6592 22.547ZM88.6165 17.137H84.6348V28.3621H86.2957V24.1093H88.6165C90.4581 24.1093 92.2686 22.7648 92.2686 20.6231C92.2686 18.4814 90.4581 17.137 88.6165 17.137ZM66.9041 27.0892C65.7562 27.0892 64.795 26.1201 64.795 24.789C64.795 23.4439 65.7562 22.46 66.9041 22.46C68.0376 22.46 68.927 23.4439 68.927 24.789C68.927 26.1201 68.0376 27.0892 66.9042 27.0892H66.9041ZM68.8122 21.8091H68.7548C68.3819 21.3607 67.6642 20.9557 66.7605 20.9557C64.8667 20.9557 63.1308 22.6336 63.1308 24.789C63.1308 26.93 64.8666 28.5936 66.7605 28.5936C67.6642 28.5936 68.3819 28.1885 68.7548 27.7258H68.8122V28.2755C68.8122 29.7368 68.0376 30.5179 66.7894 30.5179C65.7707 30.5179 65.1394 29.7799 64.8809 29.158L63.4321 29.7655C63.8482 30.7781 64.953 32.0223 66.7894 32.0223C68.7405 32.0223 70.3905 30.8647 70.3905 28.044V21.1872H68.8122V21.8091ZM71.5381 28.3621H73.2023V17.1366H71.5381V28.3621ZM75.6558 24.6589C75.6127 23.1832 76.7892 22.4312 77.6355 22.4312C78.2959 22.4312 78.8552 22.7637 79.0413 23.2415L75.6558 24.6589ZM80.8207 23.386C80.5054 22.5322 79.5436 20.9557 77.5781 20.9557C75.6269 20.9557 74.0059 22.5035 74.0059 24.7746C74.0059 26.9157 75.6127 28.5936 77.7646 28.5936C79.5009 28.5936 80.5054 27.5231 80.9213 26.9012L79.63 26.0331C79.1998 26.6697 78.6112 27.0892 77.7646 27.0892C76.9182 27.0892 76.3158 26.6985 75.9282 25.9321L80.9925 23.8199L80.8207 23.386ZM40.4718 22.1275V23.7476H44.3167C44.2019 24.6589 43.9006 25.3243 43.4415 25.7872C42.8821 26.3516 42.0069 26.9735 40.4718 26.9735C38.1045 26.9735 36.2538 25.0496 36.2538 22.6627C36.2538 20.2759 38.1045 18.3517 40.4718 18.3517C41.7488 18.3517 42.681 18.8581 43.3698 19.5091L44.5032 18.3664C43.542 17.4403 42.265 16.7316 40.4718 16.7316C37.2293 16.7316 34.5034 19.3934 34.5034 22.6627C34.5034 25.9321 37.2293 28.5936 40.4718 28.5936C42.2222 28.5936 43.542 28.0153 44.5749 26.93C45.6366 25.8595 45.9667 24.3551 45.9667 23.1401C45.9667 22.7637 45.9381 22.4168 45.8804 22.1275H40.4718ZM50.338 27.0892C49.19 27.0892 48.2 26.1344 48.2 24.7746C48.2 23.4003 49.19 22.46 50.338 22.46C51.4856 22.46 52.4756 23.4003 52.4756 24.7746C52.4756 26.1345 51.4856 27.0892 50.338 27.0892ZM50.338 20.9557C48.2431 20.9557 46.5358 22.5613 46.5358 24.7746C46.5358 26.9735 48.2431 28.5936 50.338 28.5936C52.4325 28.5936 54.1398 26.9735 54.1398 24.7746C54.1398 22.5613 52.4325 20.9557 50.338 20.9557ZM58.6318 27.0892C57.4843 27.0892 56.4941 26.1344 56.4941 24.7746C56.4941 23.4003 57.4843 22.46 58.6318 22.46C59.7795 22.46 60.7695 23.4003 60.7695 24.7746C60.7695 26.1345 59.7795 27.0892 58.6318 27.0892H58.6318ZM58.6318 20.9557C56.537 20.9557 54.83 22.5613 54.83 24.7746C54.83 26.9735 56.537 28.5936 58.6318 28.5936C60.7264 28.5936 62.4338 26.9735 62.4338 24.7746C62.4338 22.5613 60.7264 20.9557 58.6318 20.9557H58.6318Z" fill="white"/>
<g clip-path="url(#clip0_1850_17203)">
<path d="M27.3367 19.6561C27.2108 20.0729 26.9145 20.326 26.5514 20.5269C25.492 21.1 24.44 21.6806 23.3953 22.2686C23.1657 22.4025 23.0397 22.3728 22.8693 22.1867C22.1877 21.4722 21.4987 20.7651 20.8023 20.0804C20.6171 19.8943 20.6616 19.805 20.8171 19.6487C21.6395 18.8374 22.4619 18.0187 23.2694 17.1925C23.4176 17.0437 23.5139 17.0213 23.6991 17.1255C24.6993 17.7061 25.7068 18.2643 26.7144 18.83C27.0034 18.9937 27.196 19.2319 27.3442 19.5147C27.3368 19.5594 27.3367 19.604 27.3367 19.6561Z" fill="white"/>
<path d="M10.0005 19.5738C10.0005 16.8423 10.0005 14.1182 10.0005 11.3867C10.0005 11.0964 10.0524 10.8285 10.2006 10.5754C10.3265 10.367 10.4302 10.3372 10.6154 10.5307C11.2748 11.2304 11.949 11.9151 12.6232 12.5999C14.9125 14.9369 17.2091 17.2814 19.5058 19.611C19.6985 19.8045 19.6688 19.9013 19.491 20.0725C16.6239 22.938 13.7567 25.796 10.9044 28.6764C10.6673 28.9146 10.5117 28.8476 10.3265 28.669C10.0746 28.4234 10.0005 28.1033 10.0005 27.7609C10.0005 25.0294 10.0005 22.3053 10.0005 19.5738Z" fill="white"/>
<path d="M11.149 10.166C11.4453 10.1884 11.6602 10.3596 11.8898 10.4861C14.7051 12.064 17.5204 13.6567 20.3283 15.2346C21.0914 15.6589 21.8471 16.0906 22.6102 16.5148C22.8102 16.6264 22.8917 16.6934 22.6768 16.9018C21.8841 17.6759 21.1062 18.4648 20.3283 19.2538C20.2023 19.3803 20.1357 19.4175 19.9875 19.2687C17.0611 16.2543 14.1272 13.2548 11.1934 10.2554C11.1712 10.2405 11.1712 10.2107 11.149 10.166Z" fill="white"/>
<path d="M12.327 28.2152C13.3642 27.1657 14.394 26.1089 15.4312 25.0594C16.913 23.5634 18.4095 22.0823 19.8838 20.5714C20.1283 20.3183 20.2543 20.3481 20.4691 20.5863C21.1433 21.3008 21.8397 21.993 22.551 22.7224C19.1282 24.6054 15.7424 26.4736 12.3566 28.3343C12.3492 28.297 12.3418 28.2524 12.327 28.2152Z" fill="white"/>
</g>
<defs>
<clipPath id="clip0_1850_17203">
<rect width="17.3363" height="18.6667" fill="white" transform="translate(10.0002 10.1665)"/>
</clipPath>
</defs>
</svg>
