<svg width="20" height="20" viewBox="0 0 20 20" fill="none" xmlns="http://www.w3.org/2000/svg">
<path fill-rule="evenodd" clip-rule="evenodd" d="M10 1.66667C5.39763 1.66667 1.66667 5.39763 1.66667 10C1.66667 14.6024 5.39763 18.3333 10 18.3333C10.4602 18.3333 10.8333 18.7064 10.8333 19.1667C10.8333 19.6269 10.4602 20 10 20C4.47715 20 0 15.5228 0 10C0 4.47715 4.47715 0 10 0C15.5228 0 20 4.47715 20 10C20 10.4602 19.6269 10.8333 19.1667 10.8333C18.7064 10.8333 18.3333 10.4602 18.3333 10C18.3333 5.39763 14.6024 1.66667 10 1.66667Z" fill="#0075FF"/>
</svg>
