<svg width="33" height="32" viewBox="0 0 33 32" fill="none" xmlns="http://www.w3.org/2000/svg">
<path d="M18.4355 8.20174C15.4278 8.20174 12.4919 9.3615 10.2972 11.4188C7.88991 13.676 6.36647 17.0093 5.49322 20.145C4.92127 22.1971 4.63477 24.3252 4.63477 26.4544C4.63477 27.0983 4.6612 27.7368 4.71194 28.368C4.77432 29.1355 5.52176 29.6673 6.26604 29.4664C6.91516 29.292 7.59812 29.1979 8.30222 29.1979C9.74848 29.1979 11.1038 29.5912 12.2657 30.2783C12.2942 30.2953 12.3217 30.3122 12.3503 30.328C14.2384 31.454 16.466 32.0724 18.8415 31.9931C25.0378 31.788 30.0997 26.7462 30.3281 20.551C30.5776 13.7732 25.1583 8.20068 18.4366 8.20068L18.4355 8.20174ZM18.4355 25.5389C15.432 25.5389 12.9973 23.1041 12.9973 20.1017C12.9973 17.0992 15.432 14.6634 18.4355 14.6634C21.4391 14.6634 23.8738 17.0981 23.8738 20.1017C23.8738 23.1052 21.4391 25.5389 18.4355 25.5389Z" fill="#14AAFF"/>
<path d="M13.5419 4.45507C13.5419 6.02291 12.7204 7.47763 11.3715 8.27688C10.5246 8.77905 9.73067 9.37214 9.01177 10.0477C7.41644 11.5426 6.22602 13.3768 5.34431 15.1952C5.17093 15.5536 4.63281 15.4268 4.63281 15.0282V4.45507C4.63281 1.99495 6.62776 0 9.08788 0C11.548 0 13.543 1.99495 13.543 4.45507H13.5419Z" fill="#0075FF"/>
</svg>
