<svg width="49" height="48" viewBox="0 0 49 48" fill="none" xmlns="http://www.w3.org/2000/svg">
<circle cx="24.5" cy="24" r="24" fill="white"/>
<path d="M26.4355 16.2017C23.4278 16.2017 20.4919 17.3615 18.2972 19.4188C15.8899 21.676 14.3665 25.0093 13.4932 28.145C12.9213 30.1971 12.6348 32.3252 12.6348 34.4544C12.6348 35.0983 12.6612 35.7368 12.7119 36.368C12.7743 37.1355 13.5218 37.6673 14.266 37.4664C14.9152 37.292 15.5981 37.1979 16.3022 37.1979C17.7485 37.1979 19.1038 37.5912 20.2657 38.2783C20.2942 38.2953 20.3217 38.3122 20.3503 38.328C22.2384 39.454 24.466 40.0724 26.8415 39.9931C33.0378 39.788 38.0997 34.7462 38.3281 28.551C38.5776 21.7732 33.1583 16.2007 26.4366 16.2007L26.4355 16.2017ZM26.4355 33.5389C23.432 33.5389 20.9973 31.1041 20.9973 28.1017C20.9973 25.0992 23.432 22.6634 26.4355 22.6634C29.4391 22.6634 31.8738 25.0981 31.8738 28.1017C31.8738 31.1052 29.4391 33.5389 26.4355 33.5389Z" fill="#14AAFF"/>
<path d="M21.5419 12.4551C21.5419 14.0229 20.7204 15.4776 19.3715 16.2769C18.5246 16.779 17.7307 17.3721 17.0118 18.0477C15.4164 19.5426 14.226 21.3768 13.3443 23.1952C13.1709 23.5536 12.6328 23.4268 12.6328 23.0282V12.4551C12.6328 9.99495 14.6278 8 17.0879 8C19.548 8 21.543 9.99495 21.543 12.4551H21.5419Z" fill="#0075FF"/>
</svg>
