<svg width="49" height="48" viewBox="0 0 49 48" fill="none" xmlns="http://www.w3.org/2000/svg">
<circle cx="24.5" cy="24" r="24" fill="white"/>
<path d="M26.4352 16.2018C23.4275 16.2018 20.4916 17.3616 18.2969 19.4189C15.8896 21.676 14.3662 25.0094 13.4929 28.1451C12.921 30.1971 12.6345 32.3253 12.6345 34.4545C12.6345 35.0983 12.6609 35.7369 12.7116 36.368C12.774 37.1356 13.5215 37.6673 14.2657 37.4665C14.9149 37.292 15.5978 37.1979 16.3019 37.1979C17.7482 37.1979 19.1035 37.5912 20.2654 38.2784C20.2939 38.2953 20.3214 38.3122 20.35 38.3281C22.2381 39.454 24.4657 40.0725 26.8412 39.9932C33.0375 39.7881 38.0994 34.7463 38.3278 28.551C38.5773 21.7733 33.158 16.2007 26.4363 16.2007L26.4352 16.2018ZM26.4352 33.5389C23.4317 33.5389 20.997 31.1042 20.997 28.1017C20.997 25.0993 23.4317 22.6635 26.4352 22.6635C29.4388 22.6635 31.8735 25.0982 31.8735 28.1017C31.8735 31.1053 29.4388 33.5389 26.4352 33.5389Z" fill="#14AAFF"/>
<path d="M21.5424 12.4551C21.5424 14.0229 20.721 15.4776 19.372 16.2769C18.5252 16.779 17.7312 17.3721 17.0123 18.0477C15.417 19.5426 14.2266 21.3768 13.3449 23.1952C13.1715 23.5536 12.6334 23.4268 12.6334 23.0282V12.4551C12.6334 9.99495 14.6283 8 17.0884 8C19.5486 8 21.5435 9.99495 21.5435 12.4551H21.5424Z" fill="#0075FF"/>
</svg>
