<svg width="48" height="48" viewBox="0 0 48 48" fill="none" xmlns="http://www.w3.org/2000/svg">
<path d="M3 7.55556C3 5.0396 5.03959 3 7.55556 3H24.8571C27.3731 3 29.4127 5.03959 29.4127 7.55556V41.1111C29.4127 43.6271 27.3731 45.6667 24.8571 45.6667H7.55555C5.03959 45.6667 3 43.6271 3 41.1111V7.55556Z" fill="white"/>
<path fill-rule="evenodd" clip-rule="evenodd" d="M2 7.55556C2 4.48732 4.48731 2 7.55556 2H24.8571C27.9254 2 30.4127 4.48731 30.4127 7.55556V41.1111C30.4127 44.1794 27.9254 46.6667 24.8571 46.6667H7.55555C4.4873 46.6667 2 44.1794 2 41.1111V7.55556ZM7.55556 4C5.59188 4 4 5.59188 4 7.55556V41.1111C4 43.0748 5.59187 44.6667 7.55555 44.6667H24.8571C26.8208 44.6667 28.4127 43.0748 28.4127 41.1111V7.55556C28.4127 5.59188 26.8208 4 24.8571 4H7.55556Z" fill="#232528"/>
<rect x="10.1111" y="7.04785" width="12.1905" height="2.03175" rx="1.01587" fill="#232528"/>
<path d="M43.6666 28.1905C43.6666 34.9231 38.2087 40.381 31.4761 40.381C24.7435 40.381 19.2856 34.9231 19.2856 28.1905C19.2856 21.4579 24.7435 16 31.4761 16C38.2087 16 43.6666 21.4579 43.6666 28.1905Z" fill="white"/>
<path fill-rule="evenodd" clip-rule="evenodd" d="M32 16.9711C25.9089 16.9711 20.9711 21.9089 20.9711 28C20.9711 34.0911 25.9089 39.0289 32 39.0289C38.0911 39.0289 43.0289 34.0911 43.0289 28C43.0289 21.9089 38.0911 16.9711 32 16.9711ZM19 28C19 20.8203 24.8203 15 32 15C39.1797 15 45 20.8203 45 28C45 35.1797 39.1797 41 32 41C24.8203 41 19 35.1797 19 28Z" fill="#232528"/>
<path d="M32.8459 24.5829C31.5284 24.5829 30.2424 25.0909 29.2811 25.992C28.2266 26.9807 27.5593 28.4408 27.1768 29.8143C26.9263 30.7132 26.8008 31.6454 26.8008 32.578C26.8008 32.86 26.8124 33.1397 26.8346 33.4162C26.8619 33.7524 27.1893 33.9853 27.5153 33.8973C27.7997 33.8209 28.0988 33.7797 28.4072 33.7797C29.0407 33.7797 29.6344 33.952 30.1433 34.253C30.1558 34.2604 30.1679 34.2678 30.1804 34.2748C31.0074 34.7679 31.9832 35.0389 33.0237 35.0041C35.7379 34.9143 37.9551 32.7058 38.0551 29.9922C38.1644 27.0233 35.7906 24.5824 32.8464 24.5824L32.8459 24.5829ZM32.8459 32.177C31.5303 32.177 30.4638 31.1105 30.4638 29.7953C30.4638 28.4802 31.5303 27.4132 32.8459 27.4132C34.1615 27.4132 35.228 28.4797 35.228 29.7953C35.228 31.111 34.1615 32.177 32.8459 32.177Z" fill="#232528"/>
<path d="M30.7027 22.9417C30.7027 23.6284 30.3429 24.2656 29.752 24.6157C29.3811 24.8357 29.0333 25.0955 28.7184 25.3914C28.0196 26.0462 27.4982 26.8496 27.1119 27.6462C27.036 27.8031 26.8003 27.7476 26.8003 27.573V22.9417C26.8003 21.8641 27.6741 20.9902 28.7517 20.9902C29.8293 20.9902 30.7032 21.8641 30.7032 22.9417H30.7027Z" fill="#232528"/>
</svg>
