<svg width="16" height="16" viewBox="0 0 16 16" fill="none" xmlns="http://www.w3.org/2000/svg">
<path fill-rule="evenodd" clip-rule="evenodd" d="M3.93632 4.48273C4.18268 4.75635 4.60421 4.77845 4.87783 4.53208L6.11178 3.42106C6.65902 2.92834 7.50207 2.97252 7.9948 3.51976L13.6662 9.81853C14.1198 10.3222 14.9556 10.0018 14.9562 9.32397L14.9596 5.02598C14.9599 4.65779 14.6617 4.35908 14.2935 4.35878C13.9253 4.35848 13.6266 4.65672 13.6263 5.02491L13.6241 7.77906L8.98566 2.62758C8.0002 1.53312 6.31409 1.44474 5.21962 2.43019L3.98567 3.54121C3.71205 3.78758 3.68995 4.20911 3.93632 4.48273Z" fill="#232528"/>
<path fill-rule="evenodd" clip-rule="evenodd" d="M12.0637 11.5173C11.8173 11.2437 11.3958 11.2216 11.1222 11.4679L9.88822 12.5789C9.34098 13.0717 8.49793 13.0275 8.0052 12.4802L2.33376 6.18147C1.88022 5.67776 1.04437 5.99819 1.04383 6.67603L1.04038 10.974C1.04009 11.3422 1.33832 11.6409 1.70651 11.6412C2.0747 11.6415 2.37342 11.3433 2.37371 10.9751L2.37593 8.22094L7.01434 13.3724C7.9998 14.4669 9.68591 14.5553 10.7804 13.5698L12.0143 12.4588C12.288 12.2124 12.31 11.7909 12.0637 11.5173Z" fill="#232528"/>
</svg>
